# xmcd
#
# Track frame offsets: 
#        150
#        11079
#        27497
#        41262
#        66273
#        83384
#        98782
#        114876
#        134801
#        147447
#
# Disc length: 2318 seconds
#
# Revision: 0
# Processed by: cddbd v1.5.2PL0 Copyright (c) Steve Scherf et al.
# Submitted via: ExactAudioCopyFreeDBPlugin 1.0
#
DISCID=81090c0a
DTITLE=Hillbilly Jones - Keepin' Up With The Jones
DYEAR=2008
DGENRE=Country
TTITLE0=Movin' You Out
TTITLE1=The Liquor Doin' The Talkin' 
TTITLE2=Nobody's Fool
TTITLE3=I'm Not Welcome
TTITLE4=Old Grand-Dad Blues
TTITLE5=150 W. Bound
TTITLE6=Saturday Night
TTITLE7=Mama Tried
TTITLE8=Crazy Wild Baby
TTITLE9=Midnight In Texas
EXTD=
EXTT0=
EXTT1=
EXTT2=
EXTT3=
EXTT4=
EXTT5=
EXTT6=
EXTT7=
EXTT8=
EXTT9=
PLAYORDER=
